<svg id="svg" version="1.1" xmlns="http://www.w3.org/2000/svg" xmlns:xlink="http://www.w3.org/1999/xlink" width="400" height="74.68879668049793" viewBox="0, 0, 400,74.68879668049793"><g id="svgg"><path id="path0" d="M263.101 1.097 C 262.966 1.448,262.973 72.669,263.108 73.792 L 263.213 74.667 273.940 74.667 L 284.667 74.667 284.667 64.333 L 284.667 54.000 285.500 54.000 C 286.329 54.000,286.333 54.003,286.336 54.542 C 286.339 55.308,286.523 55.512,287.301 55.617 C 287.964 55.706,287.984 55.728,288.033 56.396 L 288.083 57.083 288.866 57.134 L 289.649 57.184 289.700 57.967 L 289.750 58.750 290.533 58.800 L 291.316 58.851 291.366 59.634 L 291.417 60.417 292.200 60.467 L 292.982 60.518 293.033 61.300 L 293.083 62.083 293.866 62.134 L 294.649 62.184 294.700 62.967 L 294.750 63.750 295.533 63.800 L 296.316 63.851 296.366 64.634 L 296.417 65.417 297.200 65.467 L 297.982 65.518 298.033 66.300 L 298.083 67.083 298.866 67.134 L 299.649 67.184 299.700 67.967 L 299.750 68.750 300.533 68.800 L 301.316 68.851 301.366 69.634 L 301.417 70.417 302.108 70.467 C 302.845 70.521,302.993 70.727,302.998 71.708 C 303.000 72.137,303.046 72.167,303.722 72.167 L 304.444 72.167 304.597 72.958 C 304.749 73.743,304.756 73.750,305.458 73.801 C 306.084 73.847,306.167 73.900,306.167 74.260 L 306.167 74.667 320.347 74.667 L 334.527 74.667 334.407 73.548 C 334.211 71.716,333.330 70.500,332.199 70.500 C 331.794 70.500,331.210 69.857,331.140 69.333 C 331.090 68.964,330.993 68.911,330.292 68.866 L 329.500 68.815 329.500 68.191 C 329.500 67.402,329.263 67.167,328.467 67.167 C 327.844 67.167,327.833 67.156,327.833 66.533 C 327.833 65.735,327.598 65.500,326.800 65.500 C 326.173 65.500,326.167 65.493,326.167 64.839 C 326.167 64.094,325.867 63.833,325.011 63.833 C 324.525 63.833,324.500 63.800,324.500 63.163 C 324.500 62.443,324.150 62.167,323.239 62.167 C 322.902 62.167,322.833 62.085,322.833 61.680 C 322.833 60.910,322.673 60.667,322.162 60.667 C 321.410 60.667,321.167 60.503,321.167 59.996 C 321.167 59.154,321.022 59.000,320.232 59.000 C 319.510 59.000,319.500 58.992,319.500 58.430 C 319.500 57.480,319.375 57.333,318.566 57.333 C 317.860 57.333,317.833 57.315,317.833 56.822 C 317.833 55.974,317.571 55.667,316.846 55.667 C 316.215 55.667,316.203 55.654,316.094 54.931 C 315.978 54.157,315.794 54.000,315.001 54.000 C 314.579 54.000,314.517 53.928,314.415 53.323 C 314.294 52.608,313.921 52.333,313.072 52.333 C 312.751 52.333,312.667 52.247,312.667 51.917 C 312.667 51.422,312.130 50.833,311.680 50.833 C 311.154 50.833,310.833 50.648,310.833 50.345 C 310.833 49.985,310.155 49.333,309.781 49.333 C 309.626 49.333,309.500 49.258,309.500 49.167 C 309.500 49.075,309.327 49.000,309.115 49.000 C 308.633 49.000,307.833 48.188,307.833 47.699 C 307.833 47.371,307.747 47.333,307.000 47.333 L 306.167 47.333 306.167 46.500 L 306.167 45.667 306.736 45.667 C 307.684 45.667,307.833 45.541,307.833 44.741 L 307.833 44.018 308.625 43.967 L 309.417 43.917 309.467 43.134 L 309.518 42.351 310.300 42.300 L 311.083 42.250 311.134 41.458 L 311.185 40.667 312.009 40.667 C 312.773 40.667,312.833 40.637,312.833 40.258 C 312.833 39.731,313.564 39.000,314.091 39.000 C 314.316 39.000,314.500 38.941,314.500 38.870 C 314.500 38.798,314.723 38.655,314.996 38.552 C 315.274 38.448,315.585 38.156,315.701 37.891 C 315.962 37.298,316.135 37.172,316.696 37.169 C 317.275 37.166,317.667 36.764,317.667 36.173 C 317.667 35.744,317.735 35.690,318.453 35.559 C 319.212 35.420,319.245 35.391,319.380 34.708 C 319.500 34.101,319.579 34.000,319.937 34.000 C 320.646 34.000,320.990 33.703,321.104 32.995 C 321.206 32.355,321.231 32.333,321.859 32.333 C 322.555 32.333,322.833 31.973,322.833 31.072 C 322.833 30.704,322.901 30.667,323.564 30.667 C 324.350 30.667,324.493 30.483,324.498 29.458 C 324.500 29.028,324.545 29.000,325.232 29.000 C 326.041 29.000,326.167 28.853,326.167 27.903 C 326.167 27.341,326.177 27.333,326.899 27.333 C 327.706 27.333,327.833 27.186,327.833 26.246 C 327.833 25.695,327.848 25.684,328.625 25.634 L 329.417 25.583 329.467 24.792 C 329.515 24.051,329.548 24.000,329.977 24.000 C 330.822 24.000,331.042 23.679,331.042 22.446 C 331.042 20.663,332.579 20.833,316.490 20.833 C 301.095 20.833,301.562 20.803,301.403 21.800 C 301.308 22.392,301.245 22.455,300.608 22.596 C 299.974 22.737,299.904 22.806,299.765 23.432 C 299.627 24.055,299.555 24.127,298.932 24.265 C 298.303 24.405,298.238 24.472,298.093 25.125 C 297.948 25.780,297.895 25.833,297.397 25.833 C 296.701 25.833,296.333 26.212,296.333 26.929 C 296.333 27.462,296.297 27.500,295.792 27.503 C 295.024 27.506,294.821 27.690,294.715 28.476 C 294.632 29.098,294.577 29.167,294.158 29.167 C 293.404 29.167,293.182 29.330,293.064 29.974 C 292.937 30.664,292.765 30.827,292.158 30.831 C 291.585 30.834,291.333 31.124,291.333 31.781 C 291.333 32.293,291.288 32.337,290.661 32.437 C 289.945 32.551,289.667 32.865,289.667 33.558 C 289.667 33.910,289.568 33.987,288.998 34.084 C 288.288 34.204,288.000 34.531,288.000 35.217 C 288.000 35.567,287.905 35.636,287.309 35.715 C 286.523 35.821,286.340 36.024,286.336 36.792 C 286.333 37.330,286.329 37.333,285.500 37.333 L 284.667 37.333 284.667 19.083 L 284.667 0.833 273.934 0.833 C 264.302 0.833,263.192 0.860,263.101 1.097 M192.676 19.384 C 192.247 19.533,192.069 19.714,191.970 20.099 L 191.837 20.615 189.809 20.724 C 188.694 20.784,187.359 20.833,186.844 20.833 C 185.708 20.833,185.167 21.152,185.167 21.821 C 185.167 22.254,185.105 22.299,184.375 22.403 C 183.224 22.568,182.456 22.995,182.178 23.625 C 181.974 24.089,181.855 24.167,181.345 24.169 C 180.495 24.173,180.283 24.371,180.156 25.280 C 180.085 25.790,180.036 25.125,180.022 23.458 L 180.000 20.833 169.520 20.833 C 159.976 20.833,159.020 20.858,158.812 21.109 C 158.448 21.547,158.384 70.747,158.747 70.607 C 158.902 70.548,159.000 70.605,159.000 70.755 C 159.000 71.184,159.019 71.245,159.237 71.500 C 159.623 71.954,159.743 72.233,159.484 72.077 C 159.285 71.957,159.284 71.978,159.477 72.216 C 159.602 72.370,159.660 72.609,159.607 72.748 C 159.554 72.887,159.574 73.000,159.652 73.000 C 159.848 73.000,160.038 73.654,160.003 74.208 L 159.975 74.667 170.821 74.667 L 181.667 74.667 181.667 58.500 L 181.667 42.333 182.236 42.333 C 183.182 42.333,183.333 42.207,183.333 41.413 C 183.333 40.699,183.336 40.695,184.042 40.578 C 184.850 40.442,184.994 40.290,184.997 39.565 L 185.000 39.048 186.292 38.955 C 187.996 38.834,188.148 38.759,188.272 37.982 L 188.376 37.333 195.833 37.333 L 203.289 37.333 203.381 38.014 C 203.502 38.921,203.479 38.908,205.172 38.975 L 206.650 39.033 206.700 39.808 L 206.750 40.583 207.542 40.634 L 208.333 40.685 208.333 57.676 L 208.333 74.667 219.810 74.667 L 231.286 74.667 231.393 73.642 C 231.452 73.079,231.496 67.060,231.491 60.267 C 231.481 46.451,231.500 46.689,230.378 46.167 L 229.841 45.917 229.837 39.288 L 229.833 32.658 229.406 32.496 C 229.171 32.406,228.796 32.333,228.572 32.333 C 228.171 32.333,228.167 32.315,228.167 30.769 C 228.167 29.052,228.136 29.008,226.958 29.002 C 226.520 29.000,226.500 28.964,226.500 28.167 C 226.500 27.394,226.471 27.333,226.092 27.333 C 225.576 27.333,224.884 26.703,224.808 26.163 C 224.769 25.883,224.628 25.733,224.370 25.696 C 223.861 25.624,223.167 24.958,223.167 24.542 C 223.167 24.186,222.765 24.006,221.958 24.002 C 221.529 24.000,221.500 23.954,221.500 23.274 L 221.500 22.547 220.476 22.440 C 219.912 22.382,219.210 22.333,218.916 22.333 C 218.421 22.333,218.370 22.280,218.232 21.625 L 218.083 20.917 215.833 20.811 C 214.596 20.753,213.096 20.696,212.500 20.683 C 211.451 20.660,211.409 20.643,211.167 20.121 C 210.998 19.759,210.726 19.518,210.333 19.384 C 209.505 19.102,193.491 19.102,192.676 19.384 M355.799 19.591 C 355.459 19.814,355.100 20.147,355.001 20.331 C 354.838 20.636,354.649 20.668,352.952 20.676 C 346.776 20.707,344.898 20.968,344.727 21.821 C 344.634 22.287,344.619 22.292,342.942 22.437 L 341.250 22.583 341.199 23.292 C 341.148 23.988,341.137 24.000,340.532 24.001 C 339.379 24.002,338.274 24.524,338.064 25.166 C 337.916 25.619,337.740 25.781,337.203 25.960 C 336.418 26.222,336.341 26.370,336.214 27.875 C 336.122 28.951,336.099 29.000,335.684 29.002 C 334.475 29.009,334.500 28.955,334.500 31.588 L 334.500 33.971 333.831 34.084 C 332.869 34.246,332.802 34.475,332.863 37.422 C 332.935 40.859,332.527 40.568,337.381 40.642 L 341.250 40.700 341.192 41.517 L 341.134 42.333 339.484 42.333 L 337.833 42.333 337.833 43.167 L 337.833 44.000 337.000 44.000 C 336.542 44.000,336.167 44.075,336.167 44.167 C 336.167 44.258,336.064 44.333,335.939 44.333 C 335.563 44.333,334.833 45.001,334.833 45.345 C 334.833 45.522,334.758 45.667,334.667 45.667 C 334.575 45.667,334.500 46.038,334.500 46.491 L 334.500 47.315 333.708 47.366 L 332.917 47.417 332.869 49.040 C 332.822 50.656,332.819 50.664,332.369 50.758 C 331.151 51.014,331.154 50.993,331.206 58.895 C 331.249 65.264,331.258 65.414,331.583 65.472 C 332.547 65.646,332.833 66.267,332.833 68.186 C 332.833 70.211,332.969 70.500,333.919 70.500 C 334.472 70.500,334.483 70.514,334.533 71.292 L 334.583 72.083 335.375 72.134 L 336.167 72.185 336.167 72.837 C 336.167 73.689,336.454 73.833,338.156 73.833 C 339.479 73.833,339.500 73.840,339.500 74.250 L 339.500 74.667 357.750 74.667 L 376.000 74.667 376.000 74.275 C 376.000 73.903,376.073 73.877,377.375 73.777 C 378.878 73.661,379.167 73.478,379.167 72.635 C 379.167 72.224,379.229 72.167,379.678 72.167 C 379.959 72.167,380.324 72.094,380.488 72.006 C 380.800 71.839,380.995 72.646,380.999 74.125 L 381.000 74.667 390.500 74.667 L 400.000 74.667 400.000 51.833 L 400.000 29.000 399.583 29.000 C 399.174 29.000,399.167 28.977,399.167 27.680 C 399.167 26.115,399.082 25.834,398.607 25.831 C 397.733 25.825,397.519 25.659,397.467 24.942 C 397.417 24.260,397.407 24.250,396.625 24.108 C 395.902 23.977,395.833 23.923,395.833 23.496 C 395.833 22.713,395.674 22.500,395.090 22.500 C 394.792 22.500,394.092 22.452,393.533 22.394 L 392.517 22.288 392.467 21.602 L 392.417 20.917 391.000 20.808 C 390.221 20.749,388.749 20.692,387.730 20.683 L 385.876 20.667 385.772 20.018 C 385.627 19.112,386.581 19.166,370.778 19.176 L 356.417 19.186 355.799 19.591 M377.667 36.399 C 377.667 37.208,377.814 37.333,378.764 37.333 L 379.333 37.333 379.320 39.208 C 379.313 40.240,379.269 40.990,379.223 40.875 C 379.164 40.728,378.655 40.667,377.499 40.667 L 375.860 40.667 375.749 40.161 C 375.507 39.061,375.795 39.092,365.091 39.000 C 359.770 38.954,355.548 38.863,355.708 38.797 C 355.956 38.695,356.000 38.449,356.000 37.172 L 356.000 35.667 366.833 35.667 L 377.667 35.667 377.667 36.399 M377.667 54.671 C 377.667 55.390,378.017 55.667,378.928 55.667 C 379.320 55.667,379.333 55.707,379.333 56.856 C 379.333 58.455,378.972 58.825,377.262 58.978 L 376.083 59.083 376.032 59.792 L 375.981 60.500 366.011 60.500 L 356.042 60.500 355.937 59.974 C 355.788 59.234,355.542 59.000,354.911 59.000 C 354.401 59.000,354.355 58.953,354.250 58.334 C 354.124 57.589,354.014 57.485,353.172 57.320 C 352.641 57.216,352.629 57.203,353.053 57.186 C 353.827 57.154,354.156 56.878,354.270 56.161 C 354.360 55.600,354.438 55.500,354.782 55.500 C 355.437 55.500,355.787 55.216,355.905 54.588 L 356.015 54.000 366.841 54.000 L 377.667 54.000 377.667 54.671 " stroke="none" fill="#fcfcfc" fill-rule="evenodd"></path><path id="path1" d="M0.000 11.583 L 0.000 22.333 15.333 22.333 L 30.667 22.333 30.667 48.500 L 30.667 74.667 43.167 74.667 L 55.667 74.667 55.667 48.503 L 55.667 22.338 71.077 22.294 C 85.614 22.253,86.505 22.233,86.786 21.952 C 87.065 21.673,87.083 21.018,87.083 11.286 L 87.083 0.917 43.542 0.875 L 0.000 0.833 0.000 11.583 M88.833 37.750 L 88.833 74.667 99.583 74.667 L 110.333 74.667 110.333 64.333 L 110.333 54.000 111.145 54.000 L 111.957 54.000 112.063 54.661 C 112.177 55.373,112.520 55.667,113.239 55.667 C 113.587 55.667,113.667 55.746,113.667 56.094 C 113.667 56.866,113.949 57.167,114.673 57.167 C 115.299 57.167,115.333 57.193,115.333 57.678 C 115.333 58.533,115.594 58.833,116.339 58.833 C 116.965 58.833,117.000 58.860,117.000 59.344 C 117.000 60.200,117.261 60.500,118.006 60.500 C 118.632 60.500,118.667 60.527,118.667 61.011 C 118.667 61.867,118.928 62.167,119.673 62.167 C 120.314 62.167,120.333 62.184,120.333 62.736 C 120.333 63.686,120.459 63.833,121.268 63.833 C 121.990 63.833,122.000 63.841,122.000 64.403 C 122.000 65.351,122.126 65.500,122.925 65.500 L 123.648 65.500 123.699 66.292 L 123.750 67.083 124.533 67.134 L 125.316 67.184 125.366 67.967 L 125.417 68.750 126.200 68.800 L 126.982 68.851 127.033 69.634 L 127.083 70.417 127.866 70.467 L 128.649 70.518 128.700 71.300 L 128.750 72.083 129.542 72.134 L 130.333 72.185 130.333 72.908 C 130.333 73.707,130.483 73.833,131.430 73.833 C 131.927 73.833,132.000 73.887,132.000 74.250 L 132.000 74.667 145.917 74.667 L 159.833 74.667 159.833 74.212 C 159.833 73.767,159.176 71.824,158.748 71.000 C 158.628 70.771,158.478 70.305,158.415 69.964 C 158.274 69.213,158.089 69.044,157.333 68.972 C 156.811 68.922,156.745 68.860,156.698 68.377 C 156.637 67.749,156.142 67.333,155.454 67.333 C 155.081 67.333,154.947 67.230,154.811 66.840 C 154.634 66.334,153.408 65.500,152.841 65.500 C 152.458 65.500,151.833 64.809,151.833 64.384 C 151.833 64.018,151.439 63.840,150.625 63.836 C 150.194 63.833,150.167 63.789,150.167 63.089 L 150.167 62.345 149.333 62.234 L 148.500 62.124 148.500 61.411 L 148.500 60.698 147.667 60.583 L 146.833 60.469 146.833 59.734 C 146.833 59.045,146.805 59.000,146.375 58.998 C 145.394 58.993,145.188 58.845,145.134 58.108 L 145.083 57.417 144.300 57.366 L 143.518 57.316 143.467 56.533 L 143.417 55.750 142.634 55.700 L 141.851 55.649 141.800 54.866 L 141.750 54.083 140.958 54.033 L 140.167 53.982 140.167 53.358 C 140.167 52.568,139.929 52.333,139.133 52.333 C 138.530 52.333,138.500 52.307,138.497 51.792 C 138.494 51.029,138.310 50.821,137.552 50.719 C 136.934 50.636,136.880 50.585,136.737 49.940 C 136.590 49.282,136.546 49.243,135.792 49.097 C 135.213 48.985,135.000 48.867,135.000 48.657 C 135.000 48.151,134.440 47.678,133.583 47.459 C 132.045 47.067,131.253 45.667,132.570 45.667 C 133.520 45.667,133.667 45.541,133.667 44.732 C 133.667 44.010,133.674 44.000,134.236 44.000 C 135.184 44.000,135.333 43.874,135.333 43.075 L 135.333 42.352 136.125 42.301 C 136.827 42.256,136.923 42.203,136.973 41.833 C 137.056 41.219,137.603 40.720,138.301 40.621 C 139.460 40.457,139.803 40.232,139.998 39.507 C 140.164 38.891,140.227 38.833,140.736 38.833 C 141.372 38.833,141.621 38.601,141.767 37.875 C 141.857 37.425,141.952 37.353,142.586 37.258 C 143.346 37.144,143.500 36.958,143.500 36.153 C 143.500 35.721,143.558 35.667,144.011 35.667 C 144.867 35.667,145.167 35.406,145.167 34.661 C 145.167 34.020,145.184 34.000,145.736 34.000 C 146.684 34.000,146.833 33.874,146.833 33.075 L 146.833 32.352 147.625 32.301 L 148.417 32.250 148.467 31.458 L 148.518 30.667 149.342 30.667 L 150.167 30.667 150.167 29.833 L 150.167 29.000 151.000 29.000 L 151.833 29.000 151.833 28.167 L 151.833 27.333 152.667 27.333 L 153.500 27.333 153.500 26.500 L 153.500 25.667 154.333 25.667 C 155.085 25.667,155.167 25.630,155.172 25.292 C 155.179 24.798,155.856 24.043,156.355 23.973 C 156.767 23.914,157.011 22.230,156.754 21.208 L 156.659 20.826 142.231 20.871 L 127.804 20.917 127.485 21.310 C 127.310 21.527,127.167 21.879,127.167 22.094 C 127.167 22.409,127.053 22.506,126.579 22.595 C 125.935 22.716,125.500 23.197,125.500 23.787 C 125.500 24.091,125.408 24.167,125.037 24.167 C 124.360 24.167,123.863 24.585,123.802 25.205 C 123.758 25.657,123.668 25.755,123.209 25.848 C 122.470 25.998,122.195 26.264,122.135 26.887 C 122.089 27.359,122.019 27.423,121.501 27.472 C 120.733 27.545,120.562 27.710,120.435 28.503 C 120.337 29.121,120.291 29.167,119.781 29.167 C 119.154 29.167,118.834 29.416,118.831 29.908 C 118.827 30.463,118.575 30.707,117.893 30.818 C 117.298 30.914,117.239 30.975,117.103 31.622 C 116.965 32.273,116.906 32.332,116.274 32.457 C 115.644 32.582,115.582 32.643,115.459 33.265 C 115.336 33.887,115.273 33.949,114.621 34.094 C 113.970 34.238,113.906 34.302,113.774 34.930 C 113.643 35.555,113.575 35.623,112.944 35.763 C 112.304 35.906,112.247 35.966,112.118 36.625 L 111.980 37.333 111.157 37.333 L 110.333 37.333 110.333 19.083 L 110.333 0.833 99.583 0.833 L 88.833 0.833 88.833 37.750 M235.588 0.979 C 234.853 1.136,234.809 1.669,234.873 9.500 C 234.934 16.929,234.949 17.052,235.796 17.290 C 236.416 17.463,257.770 17.452,257.944 17.278 C 258.173 17.050,258.212 1.338,257.984 1.064 C 257.782 0.821,236.702 0.740,235.588 0.979 M235.708 20.951 C 234.886 21.109,234.917 20.099,234.917 47.250 C 234.917 61.275,234.978 73.181,235.054 73.708 L 235.191 74.667 246.679 74.667 L 258.167 74.667 258.167 48.178 C 258.167 31.370,258.107 21.532,258.004 21.261 L 257.842 20.833 246.962 20.856 C 240.979 20.869,235.914 20.911,235.708 20.951 " stroke="none" fill="#bcd404" fill-rule="evenodd"></path><path id="path2" d="" stroke="none" fill="#dce8100" fill-rule="evenodd"></path><path id="path3" d="" stroke="none" fill="#dce8100" fill-rule="evenodd"></path><path id="path4" d="" stroke="none" fill="#dce8100" fill-rule="evenodd"></path></g></svg>